<svg width="67" height="66" fill="none" xmlns="http://www.w3.org/2000/svg"><rect x=".923" width="65.387" height="65.387" rx="16" fill="#36DA76"/><path d="M42.084 45.438c-.055-1.173-.127-2.34-.186-3.505-.188-3.643-.172-7.34-.37-11.001-.196-3.634-.08-7.27-.183-10.904-.021-.755.013-2.246-.769-2.677-1.68-.925-2.679 1.598-3.106 2.625-.771 1.864-1.217 3.825-1.767 5.756-.47 1.653-1.004 3.3-1.185 5.012-.134 1.285-.122 2.722.549 3.88.337.581.92.977 1.583 1.144.688.176 1.475-.054 2.128.257a.83.83 0 0 1 .385.42c.212.551.011 1.386-.055 1.954-.21 1.828-.431 3.675-.53 5.513-.06 1.111-.124 2.534.548 3.502.412.588 1.247 1.137 2 .845 1.127-.43 1.005-1.887.958-2.82ZM27.758 18.162c-.324.13-.201 1.287-.216 1.643-.021.638.023 1.484-.054 2.311a.113.113 0 0 1-.003.018c-.007.058-.012.12-.021.185-.01.063-.021.124-.03.187-.068.404-.2.881-.448 1.11-.282.263-.913.208-1.132-.102-.36-.504-.332-1.63-.354-1.663a50.35 50.35 0 0 0-.209-3.204c-.01-.08-.025-.561-.464-.613-.205-.022-.42.153-.49.472-.207.94-.4 2.735-.412 3.017a1.04 1.04 0 0 0-.004.086v.008c-.002.058-.072 1.464-.427 1.949-.186.254-.669.454-1.149.185-.19-.108-.322-.317-.414-.54-.502-1.562-.051-3.282.013-4.102.019-.23.228-1-.238-.974-.701.038-1.607 3.026-1.769 3.71-.397 1.704-.457 3.525.233 5.168a3.728 3.728 0 0 0 2.065 2.017c.41.158.868.273 1.352.34-.174 3.873-.372 7.915-.552 10.164-.139 1.693-.302 3.404-.28 5.104.013 1.016.002 2.227.669 3.078.697.89 2.168.48 2.565-.57.446-1.185.316-2.566.165-4.742-.153-2.178-.324-5.15-.419-6.748a119.684 119.684 0 0 1-.2-6.288c1.24-.177 2.395-.709 3.041-1.686.284-.427.47-.905.598-1.397.196-.744.291-1.56.249-2.328-.043-.707-.624-6.212-1.665-5.795Z" fill="#fff"/></svg>