<svg width="130" height="31" fill="none" xmlns="http://www.w3.org/2000/svg"><g clip-path="url('#clip0_1003_4180')"><path d="M15 .987C7.047.987.6 7.434.6 15.387s6.447 14.4 14.4 14.4 14.4-6.447 14.4-14.4S22.953.987 15 .987Zm3.411 9.951h-2.164c-.257 0-.542.338-.542.786v1.563h2.708l-.41 2.23h-2.298v6.69h-2.554v-6.69h-2.318v-2.23h2.318v-1.31c0-1.882 1.305-3.41 3.096-3.41h2.164v2.371Z" fill="#fff"/></g><g clip-path="url('#clip1_1003_4180')"><path d="M115 .987c-7.953 0-14.4 6.447-14.4 14.4s6.447 14.4 14.4 14.4 14.4-6.447 14.4-14.4-6.447-14.4-14.4-14.4Zm5.858 11.796c.006.123.007.246.007.366 0 3.75-2.851 8.072-8.068 8.072a8.002 8.002 0 0 1-4.347-1.275c.22.027.447.037.676.037a5.68 5.68 0 0 0 3.522-1.213 2.843 2.843 0 0 1-2.649-1.968c.425.08.862.063 1.28-.05a2.836 2.836 0 0 1-2.276-2.78v-.035c.383.211.821.34 1.286.355a2.834 2.834 0 0 1-.878-3.789 8.07 8.07 0 0 0 5.846 2.966 2.833 2.833 0 0 1 3.223-3.45 2.836 2.836 0 0 1 1.61.862 5.709 5.709 0 0 0 1.8-.688 2.853 2.853 0 0 1-1.247 1.57 5.707 5.707 0 0 0 1.629-.448 5.75 5.75 0 0 1-1.414 1.468Z" fill="#fff"/></g><g clip-path="url('#clip2_1003_4180')"><path d="M69.5 15.387a4.5 4.5 0 0 1-9 0c0-.256.027-.507.074-.75H59v5.996c0 .417.338.754.755.754h10.492a.754.754 0 0 0 .753-.754v-5.996h-1.573c.046.243.073.494.073.75Zm-4.5 3a3.002 3.002 0 0 0 2.12-5.123A3.002 3.002 0 1 0 65 18.387Zm3.6-6.15H70.4a.451.451 0 0 0 .451-.45V9.99a.452.452 0 0 0-.451-.452H68.6a.452.452 0 0 0-.451.452v1.798c.001.248.204.45.451.45ZM65 .987a14.4 14.4 0 1 0 0 28.8 14.4 14.4 0 0 0 0-28.8Zm7.5 20.234c0 .916-.75 1.666-1.666 1.666H59.167c-.917 0-1.667-.75-1.667-1.666V9.554c0-.917.75-1.667 1.667-1.667h11.667c.916 0 1.666.75 1.666 1.667V21.22Z" fill="#fff"/></g><defs><clipPath id="clip0_1003_4180"><path fill="#fff" transform="translate(0 .387)" d="M0 0h30v30H0z"/></clipPath><clipPath id="clip1_1003_4180"><path fill="#fff" transform="translate(100 .387)" d="M0 0h30v30H0z"/></clipPath><clipPath id="clip2_1003_4180"><path fill="#fff" transform="translate(50 .387)" d="M0 0h30v30H0z"/></clipPath></defs></svg>