<svg width="32" height="32" fill="none" xmlns="http://www.w3.org/2000/svg"><path d="M21.76 1.043a3.53 3.53 0 0 0-2.483-1.02 3.53 3.53 0 0 0-2.484 1.02L1.366 16.328a3.48 3.48 0 0 0-1.03 2.461 3.453 3.453 0 0 0 1.03 2.461l1.83 1.812c.796.79 1.916.65 2.592.25a1.967 1.967 0 0 1 2.377.296 1.919 1.919 0 0 1 .298 2.355c-.401.67-.545 1.779.253 2.568l1.832 1.813a3.517 3.517 0 0 0 2.485 1.02 3.543 3.543 0 0 0 2.484-1.02l15.426-15.282a3.478 3.478 0 0 0 1.03-2.461 3.452 3.452 0 0 0-1.03-2.462l-1.829-1.813c-.796-.789-1.917-.65-2.593-.25a1.967 1.967 0 0 1-2.377-.296 1.92 1.92 0 0 1-.298-2.355c.402-.67.544-1.779-.253-2.568l-1.83-1.814h-.002Z" fill="#fff"/></svg>