<svg width="28" height="32" fill="none" xmlns="http://www.w3.org/2000/svg"><path d="M.618 23.667c0 1.466.656 2.783 1.683 3.7V29.5c0 1.384 1.127 2.5 2.523 2.5a2.509 2.509 0 0 0 2.524-2.5v-.833h13.459v.833c0 1.367 1.127 2.5 2.523 2.5 1.38 0 2.524-1.116 2.524-2.5v-2.133c1.026-.917 1.682-2.233 1.682-3.7V7c0-5.833-6.023-6.667-13.459-6.667S.618 1.167.618 7v16.667Zm5.888 1.666a2.509 2.509 0 0 1-2.523-2.5c0-1.383 1.127-2.5 2.523-2.5a2.509 2.509 0 0 1 2.524 2.5c0 1.384-1.127 2.5-2.524 2.5Zm15.142 0a2.509 2.509 0 0 1-2.524-2.5c0-1.383 1.127-2.5 2.524-2.5a2.509 2.509 0 0 1 2.523 2.5c0 1.384-1.127 2.5-2.523 2.5Zm2.523-10H3.983V7H24.17v8.334Z" fill="#fff"/></svg>