<svg width="17" height="18" fill="none" xmlns="http://www.w3.org/2000/svg"><path d="m16.136 6.44-4.999-.785L8.903.765a.654.654 0 0 0-.286-.308c-.311-.166-.69-.028-.845.308l-2.234 4.89-5 .784a.614.614 0 0 0-.36.198.711.711 0 0 0-.178.484c.002.18.07.353.19.479l3.617 3.806-.855 5.375a.73.73 0 0 0 .037.371c.045.118.119.22.214.294a.59.59 0 0 0 .663.051l4.471-2.537 4.472 2.537c.122.07.264.094.4.068.342-.064.572-.414.513-.784l-.854-5.375L16.485 7.6a.7.7 0 0 0 .183-.389c.053-.372-.187-.716-.532-.772Z" fill="#FDBF00"/></svg>