<svg width="30" height="27" fill="none" xmlns="http://www.w3.org/2000/svg"><path d="M25.75 4.765c-.315-.86-1.197-1.473-2.238-1.473h-3.94V1.833c0-.802-.708-1.458-1.575-1.458h-6.304c-.867 0-1.576.656-1.576 1.458v1.459h-3.94c-1.04 0-1.907.612-2.237 1.473L.835 13.033c-.11.307-.173.627-.173.963v10.441c0 1.21 1.055 2.188 2.364 2.188 1.308 0 2.363-.977 2.363-2.188v-.729H24.3v.73c0 1.195 1.056 2.187 2.364 2.187 1.293 0 2.364-.977 2.364-2.188V13.996c0-.321-.063-.656-.173-.963L25.75 4.765ZM6.177 19.333c-1.308 0-2.364-.977-2.364-2.187s1.056-2.188 2.364-2.188c1.308 0 2.364.977 2.364 2.188 0 1.21-1.056 2.187-2.364 2.187Zm17.335 0c-1.308 0-2.363-.977-2.363-2.187s1.055-2.188 2.363-2.188c1.309 0 2.364.977 2.364 2.188 0 1.21-1.055 2.187-2.364 2.187ZM3.813 12.042l2.364-6.563h17.335l2.364 6.563H3.813Z" fill="#fff"/></svg>